<svg width="30" height="30" viewBox="0 0 30 30" fill="none" xmlns="http://www.w3.org/2000/svg">
<path d="M15 6C15.8284 6 16.5 6.67157 16.5 7.5V16.5C16.5 17.3284 15.8284 18 15 18C14.1716 18 13.5 17.3284 13.5 16.5V7.5C13.5 6.67157 14.1716 6 15 6Z" fill="#2A3136"/>
<path d="M15 21C14.1716 21 13.5 21.6716 13.5 22.5C13.5 23.3284 14.1716 24 15 24C15.8284 24 16.5 23.3284 16.5 22.5C16.5 21.6716 15.8284 21 15 21Z" fill="#2A3136"/>
<path fill-rule="evenodd" clip-rule="evenodd" d="M15 0C6.71573 0 0 6.71573 0 15C0 23.2843 6.71573 30 15 30C23.2843 30 30 23.2843 30 15C30 6.71573 23.2843 0 15 0ZM3 15C3 21.6274 8.37258 27 15 27C21.6274 27 27 21.6274 27 15C27 8.37258 21.6274 3 15 3C8.37258 3 3 8.37258 3 15Z" fill="#2A3136"/>
</svg>
