<svg width="19" height="19" viewBox="0 0 19 19" fill="none" xmlns="http://www.w3.org/2000/svg">
<path fill-rule="evenodd" clip-rule="evenodd" d="M9.41714 5.47446C7.11333 5.47446 5.24571 7.34208 5.24571 9.64589C5.24571 11.9497 7.11333 13.8173 9.41714 13.8173C11.721 13.8173 13.5886 11.9497 13.5886 9.64589C13.5886 7.34208 11.721 5.47446 9.41714 5.47446ZM6.91428 9.64589C6.91428 11.0282 8.03485 12.1488 9.41714 12.1488C10.7994 12.1488 11.92 11.0282 11.92 9.64589C11.92 8.2636 10.7994 7.14304 9.41714 7.14304C8.03485 7.14304 6.91428 8.2636 6.91428 9.64589Z" fill="black"/>
<path d="M14.4229 3.80589C13.9621 3.80589 13.5886 4.17942 13.5886 4.64018C13.5886 5.10094 13.9621 5.47446 14.4229 5.47446C14.8836 5.47446 15.2571 5.10094 15.2571 4.64018C15.2571 4.17942 14.8836 3.80589 14.4229 3.80589Z" fill="black"/>
<path fill-rule="evenodd" clip-rule="evenodd" d="M3.57714 0.46875C1.73409 0.46875 0.239998 1.96284 0.239998 3.80589V15.4859C0.239998 17.3289 1.73409 18.823 3.57714 18.823H15.2571C17.1002 18.823 18.5943 17.3289 18.5943 15.4859V3.80589C18.5943 1.96284 17.1002 0.46875 15.2571 0.46875H3.57714ZM15.2571 2.13732H3.57714C2.65561 2.13732 1.90857 2.88437 1.90857 3.80589V15.4859C1.90857 16.4074 2.65561 17.1545 3.57714 17.1545H15.2571C16.1787 17.1545 16.9257 16.4074 16.9257 15.4859V3.80589C16.9257 2.88437 16.1787 2.13732 15.2571 2.13732Z" fill="black"/>
</svg>
